<svg xmlns="http://www.w3.org/2000/svg" viewBox="0 0 320 170" role="img" aria-hidden="true">
  <defs>
    <radialGradient id="glow" cx="50%" cy="60%" r="55%">
      <stop offset="0" stop-color="#35A7D6" stop-opacity=".55"/>
      <stop offset="1" stop-color="#35A7D6" stop-opacity="0"/>
    </radialGradient>
    <linearGradient id="balde" x1="0" x2="0" y1="0" y2="1">
      <stop offset="0" stop-color="#fff"/><stop offset="1" stop-color="#EDEFF3"/>
    </linearGradient>
  </defs>
  <ellipse cx="160" cy="105" rx="160" ry="70" fill="url(#glow)"/>

  <!-- Rolo de filme -->
  <g transform="translate(58 72)">
    <circle r="40" fill="#2B3547"/>
    <circle r="36" fill="#3B475C"/>
    <circle r="8" fill="#1B2433"/>
    <g fill="#1B2433">
      <circle cx="0" cy="-21" r="9"/><circle cx="0" cy="21" r="9"/>
      <circle cx="-20" cy="-7" r="9"/><circle cx="20" cy="-7" r="9"/>
      <circle cx="-13" cy="17" r="9" transform="translate(0 -2)"/><circle cx="13" cy="17" r="9" transform="translate(0 -2)"/>
    </g>
    <circle r="3" fill="#7FBAD6"/>
  </g>
  <!-- Fita -->
  <path d="M40 112c-18 18-10 40 24 44l60 4" fill="none" stroke="#1B2433" stroke-width="12" stroke-linecap="round"/>
  <path d="M40 112c-18 18-10 40 24 44l60 4" fill="none" stroke="#7FBAD6" stroke-width="3" stroke-dasharray="4 6"/>

  <!-- Claquete -->
  <g transform="translate(205 60)">
    <rect x="0" y="26" width="88" height="60" rx="5" fill="#1B2433"/>
    <path d="M10 48h68M10 60h68M10 72h44" stroke="#3B475C" stroke-width="4" stroke-linecap="round"/>
    <g transform="rotate(-16 2 24)">
      <rect x="0" y="6" width="88" height="18" rx="3" fill="#1B2433"/>
      <path d="M10 6h11l-8 18H2zM34 6h11l-8 18H26zM58 6h11l-8 18H50zM82 6h6v5l-6 13h-7z" fill="#fff"/>
    </g>
    <rect x="0" y="26" width="88" height="12" fill="#fff"/>
    <path d="M10 26h11l-8 12H2zM34 26h11l-8 12H26zM58 26h11l-8 12H50zM82 26h6v6l-4 6h-7z" fill="#1B2433"/>
  </g>

  <!-- Pipoca -->
  <g transform="translate(112 18)">
    <g fill="#FFF6DB" stroke="#F2D38A" stroke-width="1.5">
      <circle cx="18" cy="38" r="12"/><circle cx="36" cy="28" r="13"/><circle cx="56" cy="24" r="13"/>
      <circle cx="76" cy="30" r="12"/><circle cx="90" cy="42" r="10"/><circle cx="8" cy="48" r="9"/>
      <circle cx="46" cy="14" r="11"/><circle cx="66" cy="12" r="10"/><circle cx="28" cy="16" r="9"/>
    </g>
    <path d="M0 50h96l-10 102H10z" fill="url(#balde)"/>
    <path d="M12 50h12l3 102H18zM42 50h12l-1 102h-11zM72 50h12l-6 102h-8z" fill="#E03A3E"/>
    <path d="M-4 46h104a4 4 0 0 1 0 8H-4a4 4 0 0 1 0-8Z" fill="#fff" stroke="#E5E7EB"/>
  </g>

  <!-- Estrelas -->
  <g fill="#FFC53D">
    <path d="M26 20l3.5 7 7.7 1.1-5.6 5.4 1.3 7.7L26 37.6l-6.9 3.6 1.3-7.7-5.6-5.4 7.7-1.1z"/>
    <path d="M292 22l2.4 4.8 5.3.8-3.8 3.7.9 5.3-4.8-2.5-4.8 2.5.9-5.3-3.8-3.7 5.3-.8z"/>
    <path d="M240 150l2 4 4.4.6-3.2 3.1.8 4.4-4-2.1-4 2.1.8-4.4-3.2-3.1 4.4-.6z"/>
  </g>
  <g fill="#fff" opacity=".7"><circle cx="100" cy="14" r="2"/><circle cx="270" cy="50" r="1.6"/><circle cx="18" cy="70" r="1.4"/><circle cx="305" cy="120" r="1.8"/></g>
</svg>
