<svg xmlns="http://www.w3.org/2000/svg" viewBox="0 0 320 170" aria-hidden="true">
  <defs>
    <radialGradient id="g" cx="50%" cy="60%" r="55%"><stop offset="0" stop-color="#35A7D6" stop-opacity=".5"/><stop offset="1" stop-color="#35A7D6" stop-opacity="0"/></radialGradient>
  </defs>
  <ellipse cx="160" cy="105" rx="160" ry="70" fill="url(#g)"/>
  <!-- Fábrica -->
  <g transform="translate(40 40)">
    <rect x="20" y="0" width="16" height="50" fill="#3B475C"/><rect x="46" y="14" width="14" height="36" fill="#3B475C"/>
    <path d="M0 50h40l30-20v20l30-20v20l30-20v20l30-20v80H0z" fill="#D9E2E9"/>
    <g fill="#007AAD"><rect x="14" y="80" width="18" height="16" rx="2"/><rect x="44" y="80" width="18" height="16" rx="2"/><rect x="74" y="80" width="18" height="16" rx="2"/><rect x="104" y="80" width="18" height="16" rx="2"/><rect x="134" y="80" width="18" height="16" rx="2"/></g>
    <rect x="160" y="96" width="0" height="0"/>
  </g>
  <!-- Fumaça -->
  <g fill="#FFFBFC" opacity=".7"><circle cx="68" cy="30" r="8"/><circle cx="78" cy="20" r="10"/><circle cx="92" cy="12" r="8"/></g>
  <!-- Engrenagem -->
  <g transform="translate(250 70)">
    <g fill="#FFC53D">
      <circle r="26"/>
      <g id="d"><rect x="-6" y="-36" width="12" height="14" rx="2"/></g>
      <use href="#d" transform="rotate(45)"/><use href="#d" transform="rotate(90)"/><use href="#d" transform="rotate(135)"/>
      <use href="#d" transform="rotate(180)"/><use href="#d" transform="rotate(225)"/><use href="#d" transform="rotate(270)"/><use href="#d" transform="rotate(315)"/>
    </g>
    <circle r="10" fill="#0C1D32"/>
  </g>
  <!-- Capacete -->
  <g transform="translate(222 118)">
    <path d="M4 30C4 12 18 0 34 0s30 12 30 30z" fill="#FFC53D"/>
    <rect x="0" y="28" width="72" height="8" rx="4" fill="#E8A317"/>
    <rect x="30" y="0" width="8" height="28" rx="2" fill="#E8A317"/>
  </g>
</svg>
